<mxfile host="app.diagrams.net" agent="Mozilla/5.0 (X11; Ubuntu; Linux x86_64; rv:141.0) Gecko/20100101 Firefox/141.0" version="28.1.0">
  <diagram name="Page-1" id="xIOkTCL3K24IWR9tix57">
    <mxGraphModel dx="786" dy="699" grid="1" gridSize="10" guides="1" tooltips="1" connect="1" arrows="1" fold="1" page="1" pageScale="1" pageWidth="827" pageHeight="1169" math="0" shadow="0">
      <root>
        <mxCell id="0" />
        <mxCell id="1" style="" parent="0" />
        <mxCell id="3SZMAM52sG9_Gdmyh299-129" value="" style="rounded=1;whiteSpace=wrap;html=1;shadow=0;treeFolding=0;treeMoving=0;fixDash=0;collapsible=0;recursiveResize=1;expand=1;backgroundOutline=0;movableLabel=0;autosize=0;fixedWidth=0;comic=0;" parent="1" vertex="1">
          <mxGeometry x="240" y="470" width="500" height="380" as="geometry" />
        </mxCell>
        <mxCell id="3SZMAM52sG9_Gdmyh299-130" value="" style="rounded=1;whiteSpace=wrap;html=1;shadow=0;treeFolding=0;treeMoving=0;fixDash=0;collapsible=0;recursiveResize=1;expand=1;backgroundOutline=0;movableLabel=0;autosize=0;fixedWidth=0;comic=0;" parent="1" vertex="1">
          <mxGeometry x="250" y="480" width="480" height="350" as="geometry" />
        </mxCell>
        <mxCell id="3SZMAM52sG9_Gdmyh299-131" value="" style="rounded=1;whiteSpace=wrap;html=1;shadow=0;glass=0;perimeterSpacing=1;" parent="1" vertex="1">
          <mxGeometry x="310" y="490" width="412.5" height="320" as="geometry" />
        </mxCell>
        <mxCell id="3SZMAM52sG9_Gdmyh299-133" value="" style="ellipse;shape=cloud;whiteSpace=wrap;html=1;rotation=0;dashed=1;dashPattern=8 8;shadow=0;" parent="1" vertex="1">
          <mxGeometry x="290" y="460" width="426.25" height="347.5" as="geometry" />
        </mxCell>
        <mxCell id="JFQzC-C9s6JUPjfdPCx0-2" style="edgeStyle=orthogonalEdgeStyle;rounded=0;orthogonalLoop=1;jettySize=auto;html=1;exitX=1;exitY=0.75;exitDx=0;exitDy=0;entryX=0;entryY=0.5;entryDx=0;entryDy=0;" parent="1" edge="1">
          <mxGeometry relative="1" as="geometry">
            <Array as="points">
              <mxPoint x="430" y="988" />
              <mxPoint x="514" y="988" />
            </Array>
            <mxPoint x="430" y="967.5" as="sourcePoint" />
          </mxGeometry>
        </mxCell>
        <mxCell id="JFQzC-C9s6JUPjfdPCx0-3" style="edgeStyle=orthogonalEdgeStyle;rounded=0;orthogonalLoop=1;jettySize=auto;html=1;exitX=0.997;exitY=0.147;exitDx=0;exitDy=0;entryX=0;entryY=0.5;entryDx=0;entryDy=0;startArrow=classic;startFill=1;exitPerimeter=0;" parent="1" edge="1">
          <mxGeometry relative="1" as="geometry">
            <Array as="points" />
            <mxPoint x="429.76" y="864.99" as="sourcePoint" />
          </mxGeometry>
        </mxCell>
        <mxCell id="3SZMAM52sG9_Gdmyh299-137" style="edgeStyle=orthogonalEdgeStyle;rounded=0;orthogonalLoop=1;jettySize=auto;html=1;exitX=1;exitY=0.25;exitDx=0;exitDy=0;entryX=0;entryY=0.75;entryDx=0;entryDy=0;shadow=0;" parent="1" edge="1">
          <mxGeometry relative="1" as="geometry">
            <mxPoint x="543.1300000000001" y="852.5" as="sourcePoint" />
          </mxGeometry>
        </mxCell>
        <mxCell id="3SZMAM52sG9_Gdmyh299-145" value="&lt;div&gt;Hardware&lt;/div&gt;" style="text;html=1;align=center;verticalAlign=middle;resizable=0;points=[];autosize=1;strokeColor=none;fillColor=none;shadow=0;" parent="1" vertex="1">
          <mxGeometry x="544" y="828" width="80" height="30" as="geometry" />
        </mxCell>
        <mxCell id="3SZMAM52sG9_Gdmyh299-146" value="Host OS" style="text;html=1;align=center;verticalAlign=middle;resizable=0;points=[];autosize=1;strokeColor=none;fillColor=none;shadow=0;" parent="1" vertex="1">
          <mxGeometry x="536.5" y="807.5" width="70" height="30" as="geometry" />
        </mxCell>
        <mxCell id="3SZMAM52sG9_Gdmyh299-148" style="edgeStyle=orthogonalEdgeStyle;rounded=0;orthogonalLoop=1;jettySize=auto;html=1;exitX=1;exitY=0.5;exitDx=0;exitDy=0;entryX=0;entryY=0.5;entryDx=0;entryDy=0;entryPerimeter=0;shadow=0;" parent="1" edge="1">
          <mxGeometry relative="1" as="geometry">
            <mxPoint x="699" y="827.5" as="sourcePoint" />
          </mxGeometry>
        </mxCell>
        <mxCell id="3SZMAM52sG9_Gdmyh299-149" value="&lt;div&gt;Docker Engine&lt;/div&gt;" style="text;html=1;align=center;verticalAlign=middle;resizable=0;points=[];autosize=1;strokeColor=none;fillColor=none;shadow=0;" parent="1" vertex="1">
          <mxGeometry x="530.25" y="787" width="100" height="30" as="geometry" />
        </mxCell>
        <mxCell id="3SZMAM52sG9_Gdmyh299-159" value="&lt;font style=&quot;font-size: 11px;&quot;&gt;Dispositivo Virtual 1&lt;/font&gt;" style="rhombus;whiteSpace=wrap;html=1;shadow=0;strokeColor=#FF0000;fontColor=#FF0000;" parent="1" vertex="1">
          <mxGeometry x="326" y="573.89" width="87.5" height="72.22" as="geometry" />
        </mxCell>
        <mxCell id="NnatkJBT9xsz4FV3scjZ-2" value="&lt;font style=&quot;font-size: 11px;&quot;&gt;Dispositivo Virtual 2&lt;/font&gt;" style="rhombus;whiteSpace=wrap;html=1;shadow=0;strokeColor=#FF0000;fontColor=#FF0000;" parent="1" vertex="1">
          <mxGeometry x="395" y="610" width="87.5" height="72.22" as="geometry" />
        </mxCell>
        <mxCell id="NnatkJBT9xsz4FV3scjZ-3" value="&lt;font style=&quot;font-size: 11px;&quot;&gt;Dispositivo Virtual 3&lt;/font&gt;" style="rhombus;whiteSpace=wrap;html=1;shadow=0;strokeColor=#FF0000;fontColor=#FF0000;" parent="1" vertex="1">
          <mxGeometry x="465.25" y="640" width="87.5" height="72.22" as="geometry" />
        </mxCell>
        <mxCell id="NnatkJBT9xsz4FV3scjZ-4" value="&lt;font style=&quot;font-size: 11px;&quot;&gt;Dispositivo Virtual 5&lt;/font&gt;" style="rhombus;whiteSpace=wrap;html=1;shadow=0;strokeColor=#FF0000;fontColor=#FF0000;" parent="1" vertex="1">
          <mxGeometry x="590" y="567.78" width="87.5" height="72.22" as="geometry" />
        </mxCell>
        <mxCell id="NnatkJBT9xsz4FV3scjZ-5" value="&lt;div&gt;&lt;font style=&quot;font-size: 11px;&quot;&gt;Dispositivo Virtual 4&lt;/font&gt;&lt;/div&gt;" style="rhombus;whiteSpace=wrap;html=1;shadow=0;strokeColor=#FF0000;fontColor=#FF0000;" parent="1" vertex="1">
          <mxGeometry x="536.5" y="610" width="87.5" height="72.22" as="geometry" />
        </mxCell>
        <mxCell id="NnatkJBT9xsz4FV3scjZ-45" style="edgeStyle=orthogonalEdgeStyle;rounded=0;orthogonalLoop=1;jettySize=auto;html=1;exitX=0.5;exitY=0;exitDx=0;exitDy=0;entryX=0.5;entryY=1;entryDx=0;entryDy=0;" parent="1" edge="1">
          <mxGeometry relative="1" as="geometry">
            <mxPoint x="639" y="925" as="targetPoint" />
          </mxGeometry>
        </mxCell>
        <mxCell id="NnatkJBT9xsz4FV3scjZ-67" style="rounded=0;orthogonalLoop=1;jettySize=auto;html=1;exitX=1;exitY=0;exitDx=0;exitDy=0;entryX=0;entryY=1;entryDx=0;entryDy=0;flowAnimation=0;curved=0;dashed=1;startArrow=classic;startFill=1;dashPattern=8 8;" parent="1" edge="1">
          <mxGeometry relative="1" as="geometry">
            <mxPoint x="483.6875" y="547" as="targetPoint" />
          </mxGeometry>
        </mxCell>
        <mxCell id="NnatkJBT9xsz4FV3scjZ-68" style="rounded=0;orthogonalLoop=1;jettySize=auto;html=1;exitX=0.5;exitY=0;exitDx=0;exitDy=0;entryX=0.5;entryY=1;entryDx=0;entryDy=0;flowAnimation=0;curved=0;dashed=1;startArrow=classic;startFill=1;dashPattern=8 8;" parent="1" edge="1">
          <mxGeometry relative="1" as="geometry">
            <mxPoint x="502.125" y="562" as="targetPoint" />
          </mxGeometry>
        </mxCell>
        <mxCell id="NnatkJBT9xsz4FV3scjZ-69" style="rounded=0;orthogonalLoop=1;jettySize=auto;html=1;exitX=0;exitY=0;exitDx=0;exitDy=0;entryX=1;entryY=1;entryDx=0;entryDy=0;flowAnimation=0;curved=0;dashed=1;startArrow=classic;startFill=1;dashPattern=8 8;" parent="1" edge="1">
          <mxGeometry relative="1" as="geometry">
            <mxPoint x="520.5625" y="547" as="targetPoint" />
          </mxGeometry>
        </mxCell>
        <mxCell id="NnatkJBT9xsz4FV3scjZ-70" style="rounded=0;orthogonalLoop=1;jettySize=auto;html=1;exitX=0;exitY=0;exitDx=0;exitDy=0;entryX=1;entryY=0.5;entryDx=0;entryDy=0;flowAnimation=0;curved=0;dashed=1;startArrow=classic;startFill=1;dashPattern=8 8;" parent="1" edge="1">
          <mxGeometry relative="1" as="geometry">
            <mxPoint x="539" y="532" as="targetPoint" />
          </mxGeometry>
        </mxCell>
        <mxCell id="7DoHHPpg7aaA5cZfHPbh-3" style="edgeStyle=orthogonalEdgeStyle;rounded=0;orthogonalLoop=1;jettySize=auto;html=1;exitX=1;exitY=0.5;exitDx=0;exitDy=0;entryX=0.002;entryY=0.213;entryDx=0;entryDy=0;entryPerimeter=0;" parent="1" edge="1">
          <mxGeometry relative="1" as="geometry">
            <mxPoint x="699" y="905" as="sourcePoint" />
          </mxGeometry>
        </mxCell>
      </root>
    </mxGraphModel>
  </diagram>
</mxfile>
